<?xml version="1.0" encoding="utf-8"?>
<svg version="1.1" xmlns:xlink="http://www.w3.org/1999/xlink" width="41px" height="35px" xmlns="http://www.w3.org/2000/svg">
  <g transform="matrix(1 0 0 1 -1255 0 )">
    <path d="M 40.4928385416667 28.51953125  C 40.8309461805556 28.8658854166667  41 29.2760416666667  41 29.75  L 41 33.25  C 41 33.7239583333333  40.8309461805556 34.1341145833333  40.4928385416667 34.48046875  C 40.1547309027778 34.8268229166667  39.7543402777778 35  39.2916666666667 35  L 1.70833333333333 35  C 1.24565972222222 35  0.845269097222222 34.8268229166667  0.507161458333333 34.48046875  C 0.169053819444444 34.1341145833333  0 33.7239583333333  0 33.25  L 0 29.75  C 0 29.2760416666667  0.169053819444444 28.8658854166667  0.507161458333333 28.51953125  C 0.845269097222222 28.1731770833333  1.24565972222222 28  1.70833333333333 28  L 39.2916666666667 28  C 39.7543402777778 28  40.1547309027778 28.1731770833333  40.4928385416667 28.51953125  Z M 40.4928385416667 14.51953125  C 40.8309461805556 14.8658854166667  41 15.2760416666667  41 15.75  L 41 19.25  C 41 19.7239583333333  40.8309461805556 20.1341145833333  40.4928385416667 20.48046875  C 40.1547309027778 20.8268229166667  39.7543402777778 21  39.2916666666667 21  L 1.70833333333333 21  C 1.24565972222222 21  0.845269097222222 20.8268229166667  0.507161458333333 20.48046875  C 0.169053819444444 20.1341145833333  0 19.7239583333333  0 19.25  L 0 15.75  C 0 15.2760416666667  0.169053819444444 14.8658854166667  0.507161458333333 14.51953125  C 0.845269097222222 14.1731770833333  1.24565972222222 14  1.70833333333333 14  L 39.2916666666667 14  C 39.7543402777778 14  40.1547309027778 14.1731770833333  40.4928385416667 14.51953125  Z M 40.4928385416667 0.519531250000002  C 40.8309461805556 0.865885416666664  41 1.27604166666666  41 1.75  L 41 5.25  C 41 5.72395833333333  40.8309461805556 6.13411458333333  40.4928385416667 6.48046875  C 40.1547309027778 6.82682291666666  39.7543402777778 7  39.2916666666667 7  L 1.70833333333333 7  C 1.24565972222222 7  0.845269097222222 6.82682291666666  0.507161458333333 6.48046875  C 0.169053819444444 6.13411458333333  0 5.72395833333333  0 5.25  L 0 1.75  C 0 1.27604166666666  0.169053819444444 0.865885416666664  0.507161458333333 0.519531250000002  C 0.845269097222222 0.173177083333331  1.24565972222222 0  1.70833333333333 0  L 39.2916666666667 0  C 39.7543402777778 0  40.1547309027778 0.173177083333331  40.4928385416667 0.519531250000002  Z " fill-rule="nonzero" fill="#f59a23" stroke="none" fill-opacity="0.772549019607843" transform="matrix(1 0 0 1 1255 0 )" />
  </g>
</svg>