<?xml version="1.0" encoding="utf-8"?>
<svg version="1.1" xmlns:xlink="http://www.w3.org/1999/xlink" width="40px" height="28px" xmlns="http://www.w3.org/2000/svg">
  <g transform="matrix(1 0 0 1 -1256 0 )">
    <path d="M 39.5052083333333 22.815625  C 39.8350694444444 23.0927083333333  40 23.4208333333333  40 23.8  L 40 26.6  C 40 26.9791666666667  39.8350694444444 27.3072916666667  39.5052083333333 27.584375  C 39.1753472222222 27.8614583333333  38.7847222222222 28  38.3333333333333 28  L 1.66666666666667 28  C 1.21527777777778 28  0.824652777777778 27.8614583333333  0.494791666666667 27.584375  C 0.164930555555556 27.3072916666667  0 26.9791666666667  0 26.6  L 0 23.8  C 0 23.4208333333333  0.164930555555556 23.0927083333333  0.494791666666667 22.815625  C 0.824652777777778 22.5385416666667  1.21527777777778 22.4  1.66666666666667 22  L 38.3333333333333 22  C 38.7847222222222 22.4  39.1753472222222 22.5385416666667  39.5052083333333 22.815625  Z M 39.5052083333333 11.615625  C 39.8350694444444 11.8927083333333  40 12.2208333333333  40 12.6  L 40 15.4  C 40 15.7791666666667  39.8350694444444 16.1072916666667  39.5052083333333 16.384375  C 39.1753472222222 16.6614583333333  38.7847222222222 16.8  38.3333333333333 16.8  L 1.66666666666667 16.8  C 1.21527777777778 16.8  0.824652777777778 16.6614583333333  0.494791666666667 16.384375  C 0.164930555555556 16.1072916666667  0 15.7791666666667  0 15.4  L 0 12.6  C 0 12.2208333333333  0.164930555555556 11.8927083333333  0.494791666666667 11.615625  C 0.824652777777778 11.3385416666667  1.21527777777778 11.2  1.66666666666667 11.2  L 38.3333333333333 11.2  C 38.7847222222222 11.2  39.1753472222222 11.3385416666667  39.5052083333333 11.615625  Z M 39.5052083333333 0.415625000000001  C 39.8350694444444 0.692708333333331  40 1.02083333333333  40 1.4  L 40 4.2  C 40 4.57916666666666  39.8350694444444 4.90729166666666  39.5052083333333 5.184375  C 39.1753472222222 5.46145833333333  38.7847222222222 5.6  38.3333333333333 6  L 1.66666666666667 6  C 1.21527777777778 5.6  0.824652777777778 5.46145833333333  0.494791666666667 5.184375  C 0.164930555555556 4.90729166666666  0 4.57916666666666  0 4.2  L 0 1.4  C 0 1.02083333333333  0.164930555555556 0.692708333333331  0.494791666666667 0.415625000000001  C 0.824652777777778 0.138541666666665  1.21527777777778 0  1.66666666666667 0  L 38.3333333333333 0  C 38.7847222222222 0  39.1753472222222 0.138541666666665  39.5052083333333 0.415625000000001  Z " fill-rule="nonzero" fill="#f59a23" stroke="none" fill-opacity="0.768627450980392" transform="matrix(1 0 0 1 1256 0 )" />
  </g>
</svg>