<?xml version="1.0" encoding="utf-8"?>
<svg version="1.1" xmlns:xlink="http://www.w3.org/1999/xlink" width="197px" height="337px" xmlns="http://www.w3.org/2000/svg">
  <g transform="matrix(1 0 0 1 -78 -180 )">
    <path d="M 116.650103519669 160.733466933868  C 118.009661835749 162.984635938544  118.689440993789 165.573480293921  118.689440993789 168.5  C 118.689440993789 171.426519706079  118.009661835749 174.015364061456  116.650103519669 176.266533066132  L 21.6169772256729 333.623246492986  C 20.2574189095928 335.874415497662  18.6939268461008 337  16.9265010351967 337  C 15.1590752242926 337  13.5955831608006 335.874415497662  12.2360248447205 333.623246492986  L 2.03933747412008 316.739478957916  C 0.679779158040028 314.48830995324  0 311.899465597862  0 308.972945891784  C 0 306.046426185705  0.679779158040028 303.457581830327  2.03933747412008 301.206412825651  L 82.1853002070393 168.5  L 2.03933747412008 35.7935871743487  C 0.679779158040028 33.5424181696727  0 30.9535738142952  0 28.0270541082164  C 0 25.1005344021376  0.679779158040028 22.5116900467601  2.03933747412008 20.2605210420842  L 12.2360248447205 3.37675350701403  C 13.5955831608006 1.125584502338  15.1590752242926 0  16.9265010351967 0  C 18.6939268461008 0  20.2574189095928 1.125584502338  21.6169772256729 3.37675350701403  L 116.650103519669 160.733466933868  Z M 194.96066252588 160.733466933868  C 196.32022084196 162.984635938544  197 165.573480293921  197 168.5  C 197 171.426519706079  196.32022084196 174.015364061456  194.96066252588 176.266533066132  L 99.9275362318841 333.623246492986  C 98.567977915804 335.874415497662  97.0044858523119 337  95.2370600414079 337  C 93.4696342305038 337  91.9061421670117 335.874415497662  90.5465838509317 333.623246492986  L 80.3498964803313 316.739478957916  C 78.9903381642512 314.48830995324  78.3105590062112 311.899465597862  78.3105590062112 308.972945891784  C 78.3105590062112 306.046426185705  78.9903381642512 303.457581830327  80.3498964803313 301.206412825651  L 160.495859213251 168.5  L 80.3498964803313 35.7935871743487  C 78.9903381642512 33.5424181696727  78.3105590062112 30.9535738142952  78.3105590062112 28.0270541082164  C 78.3105590062112 25.1005344021376  78.9903381642512 22.5116900467601  80.3498964803313 20.2605210420842  L 90.5465838509317 3.37675350701403  C 91.9061421670117 1.125584502338  93.4696342305038 0  95.2370600414079 0  C 97.0044858523119 0  98.567977915804 1.125584502338  99.9275362318841 3.37675350701403  L 194.96066252588 160.733466933868  Z " fill-rule="nonzero" fill="#00ffff" stroke="none" transform="matrix(1 0 0 1 78 180 )" />
  </g>
</svg>