<?xml version="1.0" encoding="utf-8"?>
<svg version="1.1" xmlns:xlink="http://www.w3.org/1999/xlink" width="41px" height="34px" xmlns="http://www.w3.org/2000/svg">
  <g transform="matrix(1 0 0 1 -1255 0 )">
    <path d="M 40.4928385416667 27.7046875  C 40.8309461805556 28.0411458333333  41 28.4395833333333  41 28.9  L 41 32.3  C 41 32.7604166666667  40.8309461805556 33.1588541666667  40.4928385416667 33.4953125  C 40.1547309027778 33.8317708333333  39.7543402777778 34  39.2916666666667 34  L 1.70833333333333 34  C 1.24565972222222 34  0.845269097222222 33.8317708333333  0.507161458333333 33.4953125  C 0.169053819444444 33.1588541666667  0 32.7604166666667  0 32.3  L 0 28.9  C 0 28.4395833333333  0.169053819444444 28.0411458333333  0.507161458333333 27.7046875  C 0.845269097222222 27.3682291666667  1.24565972222222 27.2  1.70833333333333 27  L 39.2916666666667 27  C 39.7543402777778 27.2  40.1547309027778 27.3682291666667  40.4928385416667 27.7046875  Z M 40.4928385416667 14.1046875  C 40.8309461805556 14.4411458333333  41 14.8395833333333  41 15.3  L 41 18.7  C 41 19.1604166666667  40.8309461805556 19.5588541666667  40.4928385416667 19.8953125  C 40.1547309027778 20.2317708333333  39.7543402777778 20.4  39.2916666666667 20  L 1.70833333333333 20  C 1.24565972222222 20.4  0.845269097222222 20.2317708333333  0.507161458333333 19.8953125  C 0.169053819444444 19.5588541666667  0 19.1604166666667  0 18.7  L 0 15.3  C 0 14.8395833333333  0.169053819444444 14.4411458333333  0.507161458333333 14.1046875  C 0.845269097222222 13.7682291666667  1.24565972222222 13.6  1.70833333333333 14  L 39.2916666666667 14  C 39.7543402777778 13.6  40.1547309027778 13.7682291666667  40.4928385416667 14.1046875  Z M 40.4928385416667 0.504687500000002  C 40.8309461805556 0.841145833333331  41 1.23958333333333  41 1.7  L 41 5.1  C 41 5.56041666666666  40.8309461805556 5.95885416666666  40.4928385416667 6.2953125  C 40.1547309027778 6.63177083333333  39.7543402777778 6.8  39.2916666666667 7  L 1.70833333333333 7  C 1.24565972222222 6.8  0.845269097222222 6.63177083333333  0.507161458333333 6.2953125  C 0.169053819444444 5.95885416666666  0 5.56041666666666  0 5.1  L 0 1.7  C 0 1.23958333333333  0.169053819444444 0.841145833333331  0.507161458333333 0.504687500000002  C 0.845269097222222 0.168229166666665  1.24565972222222 0  1.70833333333333 0  L 39.2916666666667 0  C 39.7543402777778 0  40.1547309027778 0.168229166666665  40.4928385416667 0.504687500000002  Z " fill-rule="nonzero" fill="#f59a23" stroke="none" fill-opacity="0.768627450980392" transform="matrix(1 0 0 1 1255 0 )" />
  </g>
</svg>