<?xml version="1.0" encoding="utf-8"?>
<svg version="1.1" xmlns:xlink="http://www.w3.org/1999/xlink" width="43px" height="50px" xmlns="http://www.w3.org/2000/svg">
  <g transform="matrix(1 0 0 1 -129 -60 )">
    <path d="M 13.2143364088006 11.2152357920193  L 18.2193044712562 19.8609431680774  C 18.0158504849775 20.223700120919  15.4014667612964 24.8186215235792  10.3761533002129 33.645707376058  C 9.82682753726047 34.5727529222088  9.16560208185474 35.0362756952842  8.39247693399574 35.0362756952842  L 1.0986515259049 35.0362756952842  C 0.671398154719659 35.0362756952842  0.356044475987698 34.8649738008867  0.152590489709014 34.5223700120919  C -0.0508634965696712 34.1797662232971  -0.0508634965696712 33.8170092704555  0.152590489709014 33.4340991535671  L 7.8736692689851 19.8911729141475  C 7.89401466761297 19.8911729141475  7.89401466761297 19.8810963321241  7.8736692689851 19.8609431680774  L 2.96025550035486 11.4268440145103  C 2.71611071682044 10.9834744054817  2.70593801750651 10.6106408706167  2.92973740241306 10.3083434099154  C 3.11284599006388 10.006045949214  3.43837236810977 9.85489721886336  3.90631653655075 9.85489721886336  L 11.2001419446416 9.85489721886336  C 12.0139578897563 9.85489721886336  12.685356044476 10.3083434099154  13.2143364088006 11.2152357920193  Z M 41.8708303761533 0  C 42.3184291459664 0  42.6337828246984 0.151148730350664  42.8168914123492 0.453446191051993  C 43.0406907972557 0.775896815800076  43.0406907972557 1.14873035066506  42.8168914123492 1.57194679564692  L 26.7033356990774 29.8065296251511  L 26.7033356990774 29.8367593712213  L 36.9574166075231 48.4280532043531  C 37.1812159924296 48.8311164852882  37.1913886917436 49.2039500201532  36.9879347054649 49.546553808948  C 36.7844807191862 49.8488512696493  36.4589543411403 50  36.0113555713272 50  L 28.7175301632363 50  C 27.8630234208659 50  27.1916252661462 49.546553808948  26.7033356990774 48.639661426844  L 16.3577004968062 29.8367593712213  C 16.7239176721079 29.1918581217251  22.125621007807 19.6997178557033  32.5628105039035 1.36033857315598  C 33.0714454696002 0.453446191051993  33.722498225692 0  34.5159687721789 0  L 41.8708303761533 0  Z " fill-rule="nonzero" fill="#2af10d" stroke="none" transform="matrix(1 0 0 1 129 60 )" />
  </g>
</svg>