<?xml version="1.0" encoding="utf-8"?>
<svg version="1.1" xmlns:xlink="http://www.w3.org/1999/xlink" width="201px" height="21px" xmlns="http://www.w3.org/2000/svg">
  <defs>
    <linearGradient gradientUnits="userSpaceOnUse" x1="-4.46309655899313E-14" y1="0" x2="201" y2="21" id="LinearGradient292">
      <stop id="Stop293" stop-color="#ffff80" offset="0" />
      <stop id="Stop294" stop-color="#02a7f0" offset="1" />
    </linearGradient>
    <mask fill="white" id="clip295">
      <path d="M 134 21  L 65.5175582193589 10.2676770343771  L 0 0  L 201 0  L 201 7.64739884393063  L 134 21  Z " fill-rule="evenodd" />
    </mask>
  </defs>
  <g transform="matrix(1 0 0 1 -120 -21 )">
    <path d="M 134 21  L 65.5175582193589 10.2676770343771  L 0 0  L 201 0  L 201 7.64739884393063  L 134 21  Z " fill-rule="nonzero" fill="#ffffff" stroke="none" fill-opacity="0" transform="matrix(1 0 0 1 120 21 )" />
    <path d="M 134 21  L 65.5175582193589 10.2676770343771  L 0 0  L 201 0  L 201 7.64739884393063  L 134 21  Z " stroke-width="4" stroke="url(#LinearGradient292)" fill="none" transform="matrix(1 0 0 1 120 21 )" mask="url(#clip295)" />
  </g>
</svg>