<?xml version="1.0" encoding="utf-8"?>
<svg version="1.1" xmlns:xlink="http://www.w3.org/1999/xlink" width="253px" height="8px" xmlns="http://www.w3.org/2000/svg">
  <g transform="matrix(1 0 0 1 -407 -646 )">
    <path d="M 247.96875 0.583333333333333  C 251.322916666667 0.972222222222219  253 1.44444444444444  253 2  L 253 6  C 253 6.55555555555555  251.322916666667 7.02777777777778  247.96875 7.41666666666667  C 244.614583333333 7.80555555555555  240.541666666667 8  235.75 8  L 17.25 8  C 12.4583333333333 8  8.38541666666667 7.80555555555555  5.03125 7.41666666666667  C 1.67708333333333 7.02777777777778  0 6.55555555555555  0 6  L 0 2  C 0 1.44444444444444  1.67708333333333 0.972222222222219  5.03125 0.583333333333333  C 8.38541666666667 0.194444444444443  12.4583333333333 0  17.25 0  L 235.75 0  C 240.541666666667 0  244.614583333333 0.194444444444443  247.96875 0.583333333333333  Z " fill-rule="nonzero" fill="#000000" stroke="none" transform="matrix(1 0 0 1 407 646 )" />
  </g>
</svg>