<?xml version="1.0" encoding="utf-8"?>
<svg version="1.1" xmlns:xlink="http://www.w3.org/1999/xlink" width="266px" height="425px" xmlns="http://www.w3.org/2000/svg">
  <defs>
    <filter x="0px" y="25px" width="266px" height="425px" filterUnits="userSpaceOnUse" id="filter315">
      <feOffset dx="5" dy="5" in="SourceAlpha" result="shadowOffsetInner" />
      <feGaussianBlur stdDeviation="2.5" in="shadowOffsetInner" result="shadowGaussian" />
      <feComposite in2="shadowGaussian" operator="atop" in="SourceAlpha" result="shadowComposite" />
      <feColorMatrix type="matrix" values="0 0 0 0 0  0 0 0 0 0  0 0 0 0 0  0 0 0 0.349019607843137 0  " in="shadowComposite" />
    </filter>
    <g id="widget316">
      <path d="M 0.5 35  A 9.5 9.5 0 0 1 10 25.5 L 246 25.5  A 9.5 9.5 0 0 1 255.5 35 L 255.5 430  A 9.5 9.5 0 0 1 246 439.5 L 10 439.5  A 9.5 9.5 0 0 1 0.5 430 L 0.5 35  Z " fill-rule="nonzero" fill="#ffffff" stroke="none" fill-opacity="0" />
      <path d="M 0.5 35  A 9.5 9.5 0 0 1 10 25.5 L 246 25.5  A 9.5 9.5 0 0 1 255.5 35 L 255.5 430  A 9.5 9.5 0 0 1 246 439.5 L 10 439.5  A 9.5 9.5 0 0 1 0.5 430 L 0.5 35  Z " stroke-width="1" stroke="#000000" fill="none" />
    </g>
  </defs>
  <g transform="matrix(1 0 0 1 0 -25 )">
    <use xlink:href="#widget316" filter="url(#filter315)" />
    <use xlink:href="#widget316" />
  </g>
</svg>