<?xml version="1.0" encoding="utf-8"?>
<svg version="1.1" xmlns:xlink="http://www.w3.org/1999/xlink" width="38px" height="50px" xmlns="http://www.w3.org/2000/svg">
  <g>
    <path d="M 18.777615215801 35.61872909699  C 19.0277980980249 35.9717577108881  19.1436235064618 36.3619472315124  19.1250914411119 36.7892976588629  L 19.1250914411119 40.3288740245262  C 19.106559375762 45.7543664065403  19.0509631797123 48.5878855444073  18.9583028529627 48.8294314381271  C 18.7359180687637 49.4240059457451  18.2633504023409 49.7956150130063  17.5405998536942 49.9442586399108  C 16.5398683247988 50.1114827201784  14.8580833942941 49.7584541062802  12.49524506218 48.8851727982163  C 10.1324067300658 48.0118914901524  8.62667642038527 47.1850613154961  7.97805413313826 46.4046822742475  C 7.73713728358937 46.1259754738016  7.57961472811509 45.7915273132664  7.50548646671544 45.4013377926421  C 7.48695440136552 45.1783723522854  7.52401853206535 44.9368264585656  7.61667885881492 44.6767001114827  C 7.69080712021458 44.4908955778521  8.00585223116313 44.0542549238201  8.56181419166057 43.3667781493868  C 9.11777615215801 42.6793013749535  10.7949280663253 40.6726124117428  13.5932699341624 37.3467112597547  C 13.6118019995123 37.3467112597547  14.1677639600098 36.6963953920476  15.2611558156547 35.3957636566332  C 15.5391367959034 35.042735042735  15.9051450865643 34.8151244890375  16.3591806876372 34.7129319955407  C 16.8132162887101 34.6107395020438  17.2718849061205 34.6432552954292  17.7351865398683 34.8104793756968  C 18.1799561082663 34.9962839093274  18.5274323335772 35.2657004830918  18.777615215801 35.61872909699  Z M 14.66349670812 28.4420289855072  C 14.8951475249939 28.8415087328131  15.0017069007559 29.2920847268673  14.983174835406 29.79375696767  C 14.9275786393563 30.8156819026384  14.4457449402585 31.4659977703456  13.5376737381127 31.7447045707915  L 10.201901975128 32.8316610925307  C 5.10558400390149 34.4667409884801  2.39990246281395 35.2842809364548  2.0848573518654 35.2842809364548  C 1.43623506461839 35.2471200297287  0.93586930017069 34.9126718691936  0.583760058522312 34.2809364548495  C 0.361375274323336 33.8164251207729  0.203852718849061 33.1196581196581  0.111192392099488 32.190635451505  C -0.0370641306998292 30.7785209959123  -0.027798098024872 29.2316982534374  0.13899049012436 27.5501672240803  C 0.305779078273592 25.8686361947231  0.583760058522312 24.7120029728725  0.972933430870519 24.0802675585284  C 1.36210680321873 23.4485321441843  1.88100463301634 23.1512448903753  2.52962692026335 23.1884057971014  C 2.77054376981224 23.1884057971014  4.64228237015362 23.9037532515793  8.14484272128749 25.3344481605351  C 9.46061936113143 25.8732813080639  10.5262131187515 26.3099219620959  11.3416239941478 26.644370122631  L 13.676664228237 27.5919732441472  C 14.1029017312851 27.7591973244147  14.431845891246 28.0425492382014  14.66349670812 28.4420289855072  Z M 37.3328456474031 36.371237458194  C 37.8517434772007 36.7800074321813  38.0555961960497 37.3467112597547  37.9444038039503 38.0713489409142  C 37.8146793465009 39.0746934225195  36.9668373567423 40.570419918246  35.4008778346745 42.5585284280936  C 33.8349183126067 44.5466369379413  32.57937088515 45.7264957264957  31.6342355523043 46.098104793757  C 30.9485491343575 46.3582311408398  30.3647890758352 46.2931995540691  29.8829553767374 45.9030100334448  C 29.6235064618386 45.7172054998142  27.9185564496464 43.0509104422148  24.7681053401609 37.9041248606466  L 23.461594732992 35.7580824972129  C 23.2021458180932 35.3678929765886  23.0955864423311 34.9405425492382  23.1419166057059 34.4760312151617  C 23.1882467690807 34.0115198810851  23.3689344062424 33.5841694537347  23.6839795171909 33.1939799331104  C 24.332601804438 32.3950204384987  25.1016825164594 32.1534745447789  25.9912216532553 32.4693422519509  C 26.0097537186052 32.487922705314  27.1124116069251 32.8595317725753  29.2991953182151 33.5841694537347  C 33.0612045842477 34.8104793756968  35.3035844915874 35.5490523968785  36.0263350402341 35.7998885172798  C 36.7490855888808 36.0507246376812  37.1845891246038 36.2411742846525  37.3328456474031 36.371237458194  Z M 18.5969275786394 9.88015607580825  C 18.9490368202877 15.2220364176886  19.1714216044867 18.7476774433296  19.2640819312363 20.4570791527313  C 19.3567422579859 22.3522853957637  18.8563764935382 23.4856930509104  17.7629846378932 23.8573021181717  C 16.6881248475981 24.1731698253437  15.631797122653 23.513563730955  14.5940014630578 21.8784838350056  L 4.08632040965618 5.21181716833891  C 3.93806388685686 4.56150130063173  4.11411850768105 3.98550724637681  4.61448427212875 3.48383500557414  C 5.37429895147525 2.68487551096246  7.29700073152889 1.85340022296544  10.3825896122897 0.989409141583053  C 13.4681784930505 0.12541806020066  15.5484028285784 -0.16722408026757  16.6232626188734 0.111482720178374  C 17.36454523287 0.297287253808987  17.8185808339429 0.715347454477883  17.9853694220922 1.36566332218506  C 18.0409656181419 1.70011148272018  18.244818336991 4.5382757339279  18.5969275786394 9.88015607580825  Z M 37.6664228237015 23.3835005574136  L 37.6664228237015 23.4671125975474  C 37.7220190197513 24.1917502787068  37.4811021702024 24.7398736529171  36.9436722750549 25.1114827201784  C 36.6656912948061 25.297287253809  33.6171665447452 26.0962467484207  27.798098024872 27.5083612040134  C 26.5564496464277 27.7870680044593  25.7132406730066 28.0007432181345  25.2684711046086 28.149386845039  L 25.2962692026335 28.0936454849498  C 24.8700316995855 28.2051282051282  24.4437941965374 28.1679672984021  24.0175566934894 27.9821627647715  C 23.5913191904414 27.7963582311408  23.2484759814679 27.4990709773318  22.9890270665691 27.0903010033445  C 22.4330651060717 26.2170196952806  22.4330651060717 25.4087699739874  22.9890270665691 24.6655518394649  C 23.007559131919 24.6469713861018  23.7025115825408 23.6993682645857  25.0738844184345 21.8227424749164  C 27.3903925871739 18.6454849498328  28.7802974884175 16.7502787068004  29.2435991221653 16.1371237458194  C 29.7069007559132 15.5239687848383  30.0219458668617 15.1616499442586  30.188734455011 15.0501672240803  C 30.7076322848086 14.6971386101821  31.3099244086808 14.678558156819  31.9956108266277 14.9944258639911  C 32.8851499634236 15.4217762913415  34.0248719824433 16.6620215533259  35.4147768836869 18.7151616499443  C 36.8046817849305 20.7683017465626  37.555230431602 22.3244147157191  37.6664228237015 23.3835005574136  Z " fill-rule="nonzero" fill="#000000" stroke="none" />
  </g>
</svg>