<?xml version="1.0" encoding="utf-8"?>
<svg version="1.1" xmlns:xlink="http://www.w3.org/1999/xlink" width="110px" height="70px" xmlns="http://www.w3.org/2000/svg">
  <g transform="matrix(1 0 0 1 -461 -282 )">
    <path d="M 471.5 351.5  L 570.5 351.5  L 570.5 292.5  L 565.5 292.5  L 565.5 287.5  L 560.5 287.5  L 560.5 282.5  L 461.5 282.5  L 461.5 341.5  L 466.5 341.5  L 466.5 346.5  L 471.5 346.5  L 471.5 351.5  Z " fill-rule="nonzero" fill="#ffff00" stroke="none" />
    <path d="M 471.5 351.5  L 570.5 351.5  L 570.5 292.5  L 565.5 292.5  L 565.5 287.5  L 560.5 287.5  L 560.5 282.5  L 461.5 282.5  L 461.5 341.5  L 466.5 341.5  L 466.5 346.5  L 471.5 346.5  L 471.5 351.5  Z " stroke-width="1" stroke="#95f204" fill="none" />
    <path d="M 565.5 293  L 565.5 346.5  L 472 346.5  M 560.5 288  L 560.5 341.5  L 467 341.5  " stroke-width="1" stroke="#95f204" fill="none" />
  </g>
</svg>