<?xml version="1.0" encoding="utf-8"?>
<svg version="1.1" xmlns:xlink="http://www.w3.org/1999/xlink" width="67px" height="50px" xmlns="http://www.w3.org/2000/svg">
  <g transform="matrix(1 0 0 1 -308 0 )">
    <path d="M 66.1712239583333 40.7421875  C 66.7237413194444 41.2369791666667  67 41.8229166666667  67 42.5  L 67 47.5  C 67 48.1770833333333  66.7237413194444 48.7630208333333  66.1712239583333 49.2578125  C 65.6187065972222 49.7526041666667  64.9644097222222 50  64.2083333333333 50  L 2.79166666666667 50  C 2.03559027777778 50  1.38129340277778 49.7526041666667  0.828776041666667 49.2578125  C 0.276258680555556 48.7630208333333  0 48.1770833333333  0 47.5  L 0 42.5  C 0 41.8229166666667  0.276258680555556 41.2369791666667  0.828776041666667 40.7421875  C 1.38129340277778 40.2473958333333  2.03559027777778 40  2.79166666666667 40  L 64.2083333333333 40  C 64.9644097222222 40  65.6187065972222 40.2473958333333  66.1712239583333 40.7421875  Z M 66.1712239583333 20.7421875  C 66.7237413194444 21.2369791666667  67 21.8229166666667  67 22.5  L 67 27.5  C 67 28.1770833333333  66.7237413194444 28.7630208333333  66.1712239583333 29.2578125  C 65.6187065972222 29.7526041666667  64.9644097222222 30  64.2083333333333 30  L 2.79166666666667 30  C 2.03559027777778 30  1.38129340277778 29.7526041666667  0.828776041666667 29.2578125  C 0.276258680555556 28.7630208333333  0 28.1770833333333  0 27.5  L 0 22.5  C 0 21.8229166666667  0.276258680555556 21.2369791666667  0.828776041666667 20.7421875  C 1.38129340277778 20.2473958333333  2.03559027777778 20  2.79166666666667 20  L 64.2083333333333 20  C 64.9644097222222 20  65.6187065972222 20.2473958333333  66.1712239583333 20.7421875  Z M 66.1712239583333 0.742187500000002  C 66.7237413194444 1.23697916666666  67 1.82291666666666  67 2.5  L 67 7.5  C 67 8.17708333333333  66.7237413194444 8.76302083333333  66.1712239583333 9.2578125  C 65.6187065972222 9.75260416666666  64.9644097222222 10  64.2083333333333 10  L 2.79166666666667 10  C 2.03559027777778 10  1.38129340277778 9.75260416666666  0.828776041666667 9.2578125  C 0.276258680555556 8.76302083333333  0 8.17708333333333  0 7.5  L 0 2.5  C 0 1.82291666666666  0.276258680555556 1.23697916666666  0.828776041666667 0.742187500000002  C 1.38129340277778 0.24739583333333  2.03559027777778 0  2.79166666666667 0  L 64.2083333333333 0  C 64.9644097222222 0  65.6187065972222 0.24739583333333  66.1712239583333 0.742187500000002  Z " fill-rule="nonzero" fill="#00ffff" stroke="none" fill-opacity="0.768627450980392" transform="matrix(1 0 0 1 308 0 )" />
  </g>
</svg>