<?xml version="1.0" encoding="utf-8"?>
<svg version="1.1" xmlns:xlink="http://www.w3.org/1999/xlink" width="64px" height="50px" xmlns="http://www.w3.org/2000/svg">
  <g transform="matrix(1 0 0 1 -296 0 )">
    <path d="M 63.2083333333333 40.7421875  C 63.7361111111111 41.2369791666667  64 41.8229166666667  64 42.5  L 64 47.5  C 64 48.1770833333333  63.7361111111111 48.7630208333333  63.2083333333333 49.2578125  C 62.6805555555556 49.7526041666667  62.0555555555556 50  61.3333333333333 50  L 2.66666666666667 50  C 1.94444444444444 50  1.31944444444444 49.7526041666667  0.791666666666667 49.2578125  C 0.263888888888889 48.7630208333333  0 48.1770833333333  0 47.5  L 0 42.5  C 0 41.8229166666667  0.263888888888889 41.2369791666667  0.791666666666667 40.7421875  C 1.31944444444444 40.2473958333333  1.94444444444444 40  2.66666666666667 40  L 61.3333333333333 40  C 62.0555555555556 40  62.6805555555556 40.2473958333333  63.2083333333333 40.7421875  Z M 63.2083333333333 20.7421875  C 63.7361111111111 21.2369791666667  64 21.8229166666667  64 22.5  L 64 27.5  C 64 28.1770833333333  63.7361111111111 28.7630208333333  63.2083333333333 29.2578125  C 62.6805555555556 29.7526041666667  62.0555555555556 30  61.3333333333333 30  L 2.66666666666667 30  C 1.94444444444444 30  1.31944444444444 29.7526041666667  0.791666666666667 29.2578125  C 0.263888888888889 28.7630208333333  0 28.1770833333333  0 27.5  L 0 22.5  C 0 21.8229166666667  0.263888888888889 21.2369791666667  0.791666666666667 20.7421875  C 1.31944444444444 20.2473958333333  1.94444444444444 20  2.66666666666667 20  L 61.3333333333333 20  C 62.0555555555556 20  62.6805555555556 20.2473958333333  63.2083333333333 20.7421875  Z M 63.2083333333333 0.742187500000002  C 63.7361111111111 1.23697916666666  64 1.82291666666666  64 2.5  L 64 7.5  C 64 8.17708333333333  63.7361111111111 8.76302083333333  63.2083333333333 9.2578125  C 62.6805555555556 9.75260416666666  62.0555555555556 10  61.3333333333333 10  L 2.66666666666667 10  C 1.94444444444444 10  1.31944444444444 9.75260416666666  0.791666666666667 9.2578125  C 0.263888888888889 8.76302083333333  0 8.17708333333333  0 7.5  L 0 2.5  C 0 1.82291666666666  0.263888888888889 1.23697916666666  0.791666666666667 0.742187500000002  C 1.31944444444444 0.24739583333333  1.94444444444444 0  2.66666666666667 0  L 61.3333333333333 0  C 62.0555555555556 0  62.6805555555556 0.24739583333333  63.2083333333333 0.742187500000002  Z " fill-rule="nonzero" fill="#00ffff" stroke="none" fill-opacity="0.768627450980392" transform="matrix(1 0 0 1 296 0 )" />
  </g>
</svg>