<?xml version="1.0" encoding="utf-8"?>
<svg version="1.1" xmlns:xlink="http://www.w3.org/1999/xlink" width="204px" height="21px" xmlns="http://www.w3.org/2000/svg">
  <defs>
    <linearGradient gradientUnits="userSpaceOnUse" x1="-4.52970994047064E-14" y1="0" x2="204" y2="21" id="LinearGradient643">
      <stop id="Stop644" stop-color="#ffff80" offset="0" />
      <stop id="Stop645" stop-color="#02a7f0" offset="1" />
    </linearGradient>
    <mask fill="white" id="clip646">
      <path d="M 136 21  L 66.4954322226329 10.2676770343771  L 0 0  L 204 0  L 204 7.64739884393063  L 136 21  Z " fill-rule="evenodd" />
    </mask>
  </defs>
  <g transform="matrix(1 0 0 1 -120 -21 )">
    <path d="M 136 21  L 66.4954322226329 10.2676770343771  L 0 0  L 204 0  L 204 7.64739884393063  L 136 21  Z " fill-rule="nonzero" fill="#ffffff" stroke="none" fill-opacity="0" transform="matrix(1 0 0 1 120 21 )" />
    <path d="M 136 21  L 66.4954322226329 10.2676770343771  L 0 0  L 204 0  L 204 7.64739884393063  L 136 21  Z " stroke-width="4" stroke="url(#LinearGradient643)" fill="none" transform="matrix(1 0 0 1 120 21 )" mask="url(#clip646)" />
  </g>
</svg>