<?xml version="1.0" encoding="utf-8"?>
<svg version="1.1" xmlns:xlink="http://www.w3.org/1999/xlink" width="138px" height="166px" xmlns="http://www.w3.org/2000/svg">
  <g transform="matrix(1 0 0 1 -172 -143 )">
    <path d="M 109.4296875 105.602678571429  C 110.0765625 108.9375  110.4 112.581101190476  110.4 116.533482142857  C 110.4 120.485863095238  109.0703125 123.789806547619  106.4109375 126.4453125  C 103.7515625 129.100818452381  100.48125 130.428571428571  96.6 130  L 41.4 130  C 37.51875 130.428571428571  34.2484375 129.100818452381  31.5890625 126.4453125  C 28.9296875 123.789806547619  27.6 120.485863095238  27.6 116.533482142857  C 27.6 112.581101190476  27.9234375 108.9375  28.5703125 105.602678571429  C 29.2171875 102.267857142857  30.27734375 99.0565476190476  31.75078125 95.96875  C 33.22421875 92.8809523809524  35.41640625 90.45703125  38.32734375 88.6969866071428  C 41.23828125 86.9369419642857  44.70625 86.0569196428572  48.73125 86.0569196428572  C 54.48125 90.6886160714286  61.2375 93.0044642857143  69 93.0044642857143  C 76.7625 93.0044642857143  83.51875 90.6886160714286  89.26875 86.0569196428572  C 93.29375 86.0569196428572  96.76171875 86.9369419642857  99.67265625 88.6969866071428  C 102.58359375 90.45703125  104.77578125 92.8809523809524  106.24921875 95.96875  C 107.72265625 99.0565476190476  108.7828125 102.267857142857  109.4296875 105.602678571429  Z M 86.51953125 53.5887276785714  C 91.37109375 57.6954985119047  93.796875 62.6514136904762  93.796875 68.4564732142857  C 93.796875 74.2615327380952  91.37109375 79.2174479166667  86.51953125 83.32421875  C 81.66796875 87.4309895833333  75.828125 89.484375  69 89.484375  C 62.171875 89.484375  56.33203125 87.4309895833333  51.48046875 83.32421875  C 46.62890625 79.2174479166667  44.203125 74.2615327380952  44.203125 68.4564732142857  C 44.203125 62.6514136904762  46.62890625 57.6954985119047  51.48046875 53.5887276785714  C 56.33203125 49.4819568452381  62.171875 47.4285714285714  69 47.4285714285714  C 75.828125 47.4285714285714  81.66796875 49.4819568452381  86.51953125 53.5887276785714  Z M 123.17578125 153.262834821429  C 123.85859375 152.67615327381  124.2 151.981398809524  124 151.178571428571  L 124 24  L 14 24  L 14 151.178571428571  C 13.8 151.981398809524  14.14140625 152.67615327381  14.82421875 153.262834821429  C 15.50703125 153.849516369048  16.315625 154.142857142857  17.25 154  L 120.75 154  C 121.684375 154.142857142857  122.49296875 153.849516369048  123.17578125 153.262834821429  Z M 132.9328125 4.35379464285715  C 136.3109375 7.2563244047619  138 10.7455357142857  138 14.8214285714286  L 138 151.178571428571  C 138 155.254464285714  136.3109375 158.743675595238  132.9328125 161.646205357143  C 129.5546875 164.548735119048  125.49375 166  120.75 166  L 17.25 166  C 12.50625 166  8.4453125 164.548735119048  5.0671875 161.646205357143  C 1.6890625 158.743675595238  0 155.254464285714  0 151.178571428571  L 0 14.8214285714286  C 0 10.7455357142857  1.6890625 7.2563244047619  5.0671875 4.35379464285715  C 8.4453125 1.45126488095238  12.50625 0  17.25 0  L 55.2 0  L 55.2 8.89285714285715  C 55.2 9.75744047619047  55.5234375 10.4676339285714  56.1703125 11.0234375  C 56.8171875 11.5792410714286  57.64375 11.8571428571429  58.65 12  L 79.35 12  C 80.35625 11.8571428571429  81.1828125 11.5792410714286  81.8296875 11.0234375  C 82.4765625 10.4676339285714  82.8 9.75744047619047  82.8 8.89285714285715  L 82.8 0  L 120.75 0  C 125.49375 0  129.5546875 1.45126488095238  132.9328125 4.35379464285715  Z " fill-rule="nonzero" fill="#facd91" stroke="none" transform="matrix(1 0 0 1 172 143 )" />
  </g>
</svg>