<?xml version="1.0" encoding="utf-8"?>
<svg version="1.1" xmlns:xlink="http://www.w3.org/1999/xlink" width="66px" height="69px" xmlns="http://www.w3.org/2000/svg">
  <g transform="matrix(1 0 0 1 -911 -34 )">
    <path d="M 52.3359375 43.8950892857143  C 52.6453125 45.28125  52.8 46.7957589285714  52.8 48.4386160714286  C 52.8 50.0814732142857  52.1640625 51.4547991071429  50.8921875 52.55859375  C 49.6203125 53.6623883928571  48.05625 54.2142857142857  46.2 54  L 19.8 54  C 17.94375 54.2142857142857  16.3796875 53.6623883928571  15.1078125 52.55859375  C 13.8359375 51.4547991071429  13.2 50.0814732142857  13.2 48.4386160714286  C 13.2 46.7957589285714  13.3546875 45.28125  13.6640625 43.8950892857143  C 13.9734375 42.5089285714286  14.48046875 41.1741071428571  15.18515625 39.890625  C 15.88984375 38.6071428571429  16.93828125 37.599609375  18.33046875 36.8680245535714  C 19.72265625 36.1364397321429  21.38125 35.7706473214286  23.30625 35.7706473214286  C 26.05625 37.6958705357143  29.2875 38.6584821428571  33 38.6584821428571  C 36.7125 38.6584821428571  39.94375 37.6958705357143  42.69375 35.7706473214286  C 44.61875 35.7706473214286  46.27734375 36.1364397321429  47.66953125 36.8680245535714  C 49.06171875 37.599609375  50.11015625 38.6071428571429  50.81484375 39.890625  C 51.51953125 41.1741071428571  52.0265625 42.5089285714286  52.3359375 43.8950892857143  Z M 41.37890625 22.2748325892857  C 43.69921875 23.9818638392857  44.859375 26.0418526785714  44.859375 28.4547991071429  C 44.859375 30.8677455357143  43.69921875 32.927734375  41.37890625 34.634765625  C 39.05859375 36.341796875  36.265625 37.1953125  33 37.1953125  C 29.734375 37.1953125  26.94140625 36.341796875  24.62109375 34.634765625  C 22.30078125 32.927734375  21.140625 30.8677455357143  21.140625 28.4547991071429  C 21.140625 26.0418526785714  22.30078125 23.9818638392857  24.62109375 22.2748325892857  C 26.94140625 20.5678013392857  29.734375 19.7142857142857  33 19.7142857142857  C 36.265625 19.7142857142857  39.05859375 20.5678013392857  41.37890625 22.2748325892857  Z M 58.91015625 63.7056361607143  C 59.23671875 63.4617745535714  59.4 63.1729910714286  59 62.8392857142857  L 59 10  L 7 10  L 7 62.8392857142857  C 6.6 63.1729910714286  6.76328125 63.4617745535714  7.08984375 63.7056361607143  C 7.41640625 63.9494977678571  7.803125 64.0714285714286  8.25 64  L 57.75 64  C 58.196875 64.0714285714286  58.58359375 63.9494977678571  58.91015625 63.7056361607143  Z M 63.5765625 1.80970982142857  C 65.1921875 3.01618303571428  66 4.46651785714286  66 6.16071428571429  L 66 62.8392857142857  C 66 64.5334821428571  65.1921875 65.9838169642857  63.5765625 67.1902901785714  C 61.9609375 68.3967633928571  60.01875 69  57.75 69  L 8.25 69  C 5.98125 69  4.0390625 68.3967633928571  2.4234375 67.1902901785714  C 0.8078125 65.9838169642857  0 64.5334821428571  0 62.8392857142857  L 0 6.16071428571429  C 0 4.46651785714286  0.8078125 3.01618303571428  2.4234375 1.80970982142857  C 4.0390625 0.603236607142858  5.98125 0  8.25 0  L 26.4 0  L 26.4 3.69642857142857  C 26.4 4.05580357142857  26.5546875 4.35100446428571  26.8640625 4.58203125  C 27.1734375 4.81305803571429  27.56875 4.92857142857143  28.05 4.92857142857143  L 37.95 4.92857142857143  C 38.43125 4.92857142857143  38.8265625 4.81305803571429  39.1359375 4.58203125  C 39.4453125 4.35100446428571  39.6 4.05580357142857  39.6 3.69642857142857  L 39.6 0  L 57.75 0  C 60.01875 0  61.9609375 0.603236607142858  63.5765625 1.80970982142857  Z " fill-rule="nonzero" fill="#facd91" stroke="none" transform="matrix(1 0 0 1 911 34 )" />
  </g>
</svg>