<?xml version="1.0" encoding="utf-8"?>
<svg version="1.1" xmlns:xlink="http://www.w3.org/1999/xlink" width="210px" height="210px" xmlns="http://www.w3.org/2000/svg">
  <defs>
    <filter x="264px" y="26px" width="210px" height="210px" filterUnits="userSpaceOnUse" id="filter668">
      <feOffset dx="5" dy="5" in="SourceAlpha" result="shadowOffsetInner" />
      <feGaussianBlur stdDeviation="2.5" in="shadowOffsetInner" result="shadowGaussian" />
      <feComposite in2="shadowGaussian" operator="atop" in="SourceAlpha" result="shadowComposite" />
      <feColorMatrix type="matrix" values="0 0 0 0 0  0 0 0 0 0  0 0 0 0 0  0 0 0 0.349019607843137 0  " in="shadowComposite" />
    </filter>
    <g id="widget669">
      <path d="M 265 36  A 9 9 0 0 1 274 27 L 454 27  A 9 9 0 0 1 463 36 L 463 216  A 9 9 0 0 1 454 225 L 274 225  A 9 9 0 0 1 265 216 L 265 36  Z " fill-rule="nonzero" fill="#80ffff" stroke="none" />
      <path d="M 264.5 36  A 9.5 9.5 0 0 1 274 26.5 L 454 26.5  A 9.5 9.5 0 0 1 463.5 36 L 463.5 216  A 9.5 9.5 0 0 1 454 225.5 L 274 225.5  A 9.5 9.5 0 0 1 264.5 216 L 264.5 36  Z " stroke-width="1" stroke="#ffffff" fill="none" stroke-opacity="0.87843137254902" />
    </g>
  </defs>
  <g transform="matrix(1 0 0 1 -264 -26 )">
    <use xlink:href="#widget669" filter="url(#filter668)" />
    <use xlink:href="#widget669" />
  </g>
</svg>