<?xml version="1.0" encoding="utf-8"?>
<svg version="1.1" xmlns:xlink="http://www.w3.org/1999/xlink" width="40px" height="50px" xmlns="http://www.w3.org/2000/svg">
  <g transform="matrix(1 0 0 1 -15 0 )">
    <path d="M 33.4749620637329 10.4266826923077  C 30.5209914011128 15.3946314102564  26.9499241274659 21.504407051282  22.7617602427921 28.7560096153846  L 23.1562974203338 50  C 21.9018715225089 49.7796474358974  20.8396560445119 49.6694711538462  19.9696509863429 49.6694711538462  C 19.1401112797167 49.6694711538462  18.0778958017198 49.7796474358974  16.783004552352 50  L 17.1775417298938 28.7560096153846  C 16.3682346990389 27.3737980769231  14.663631765301 24.4140625  12.0637329286798 19.8768028846154  C 9.46383409205868 15.3395432692308  7.27364693980779 11.5885416666667  5.49317147192716 8.62379807692308  C 3.71269600404654 5.65905448717948  1.88163884673748 2.78445512820512  0 0  C 1.1734951947395 0.300480769230771  2.26605968639353 0.450721153846156  3.27769347496206 0.450721153846156  C 4.16793120890238 0.450721153846156  5.29084471421346 0.300480769230771  6.6464339908953 0  C 7.92109256449165 2.22355769230769  9.27162367223065 4.52223557692308  10.6980273141123 6.89603365384616  C 12.1244309559939 9.26983173076923  13.8138593829034 12.0392628205128  15.7663125948407 15.2043269230769  C 17.7187658067779 18.369391025641  19.1198786039454 20.6430288461538  19.9696509863429 22.0252403846154  C 20.7182599898837 20.8032852564103  21.8259989883662 19.0254407051282  23.2928679817906 16.6917067307692  C 24.759736975215 14.3579727564103  25.948406676783 12.4549278846154  26.8588770864947 10.9825721153846  C 27.7693474962064 9.51021634615384  28.8315629742033 7.74739583333333  30.0455235204856 5.69411057692308  C 31.2594840667678 3.64082532051281  32.3419322205362 1.74278846153846  33.2928679817906 0  C 34.3854324734446 0.280448717948717  35.4678806272129 0.420673076923078  36.5402124430956 0.420673076923078  C 37.6732422862924 0.420673076923078  38.8265048052605 0.280448717948717  40 0  C 39.4334850784016 0.78125  38.8265048052605 1.66766826923077  38.1790591805766 2.65925480769231  C 37.5316135558928 3.65084134615384  37.0308548305513 4.43709935897436  36.6767830045524 5.01802884615384  C 36.3227111785534 5.59895833333333  35.7511380880121 6.5604967948718  34.9620637329287 7.90264423076923  C 34.1729893778452 9.24479166666666  33.6772888214466 10.0861378205128  33.4749620637329 10.4266826923077  Z " fill-rule="nonzero" fill="#ffffff" stroke="none" transform="matrix(1 0 0 1 15 0 )" />
  </g>
</svg>