<?xml version="1.0" encoding="utf-8"?>
<svg version="1.1" xmlns:xlink="http://www.w3.org/1999/xlink" width="36px" height="37px" xmlns="http://www.w3.org/2000/svg">
  <g transform="matrix(1 0 0 1 -124 -499 )">
    <path d="M 20.4140625 25.2688802083333  C 20.5546875 25.4134114583333  20.625 25.5980902777778  20.625 25.8229166666667  L 20.625 29.6770833333333  C 20.625 29.9019097222222  20.5546875 30.0865885416667  20.4140625 30.2311197916667  C 20.2734375 30.3756510416667  20.09375 30.4479166666667  19.875 30.4479166666667  L 16.125 30.4479166666667  C 15.90625 30.4479166666667  15.7265625 30.3756510416667  15.5859375 30.2311197916667  C 15.4453125 30.0865885416667  15.375 29.9019097222222  15.375 29.6770833333333  L 15.375 25.8229166666667  C 15.375 25.5980902777778  15.4453125 25.4134114583333  15.5859375 25.2688802083333  C 15.7265625 25.1243489583333  15.90625 25.0520833333333  16.125 25.0520833333333  L 19.875 25.0520833333333  C 20.09375 25.0520833333333  20.2734375 25.1243489583333  20.4140625 25.2688802083333  Z M 24.05859375 8.7080078125  C 25.76953125 10.1452907986111  26.625 11.8676215277778  26.625 13.875  C 26.625 14.6779513888889  26.5078125 15.4006076388889  26.2734375 16.04296875  C 26.0390625 16.6853298611111  25.68359375 17.2393663194444  25.20703125 17.705078125  C 24.73046875 18.1707899305556  24.32421875 18.5240885416667  23.98828125 18.7649739583333  C 23.65234375 19.005859375  23.1875 19.294921875  22.59375 19.6321614583333  C 22.09375 19.9212239583333  21.73046875 20.1460503472222  21.50390625 20.306640625  C 21.27734375 20.4672309027778  21.07421875 20.6599392361111  20.89453125 20.884765625  C 20.71484375 21.1095920138889  20.625 21.3424479166667  20.625 21.5833333333333  L 20.625 22.3541666666667  C 20.625 22.5789930555556  20.5546875 22.763671875  20.4140625 22.908203125  C 20.2734375 23.052734375  20.09375 23.125  19.875 23.125  L 16.125 23.125  C 15.90625 23.125  15.7265625 23.052734375  15.5859375 22.908203125  C 15.4453125 22.763671875  15.375 22.5789930555556  15.375 22.3541666666667  L 15.375 20.7161458333333  C 15.375 20.1540798611111  15.45703125 19.6361762152778  15.62109375 19.1624348958333  C 15.78515625 18.6886935763889  15.97265625 18.3072916666667  16.18359375 18.0182291666667  C 16.39453125 17.7291666666667  16.69921875 17.4441189236111  17.09765625 17.1630859375  C 17.49609375 16.8820529513889  17.81640625 16.6773003472222  18.05859375 16.548828125  C 18.30078125 16.4203559027778  18.6484375 16.2517361111111  19.1015625 16.04296875  C 19.9296875 15.6414930555556  20.515625 15.2962239583333  20.859375 15.0071614583333  C 21.203125 14.7180989583333  21.375 14.3246527777778  21.375 13.8268229166667  C 21.375 13.15234375  21.03515625 12.5782335069444  20.35546875 12.1044921875  C 19.67578125 11.6307508680556  18.9296875 11.3938802083333  18.1171875 11.3938802083333  C 17.2421875 11.3938802083333  16.5 11.6106770833333  15.890625 12.0442708333333  C 15.4375 12.3654513888889  14.8125 13.0319010416667  14.015625 14.0436197916667  C 13.875 14.236328125  13.6796875 14.3326822916667  13.4296875 14.3326822916667  C 13.2578125 14.3326822916667  13.109375 14.2845052083333  12.984375 14.1881510416667  L 10.453125 12.212890625  C 10.296875 12.1004774305556  10.203125 11.9398871527778  10.171875 11.7311197916667  C 10.140625 11.5223524305556  10.1796875 11.3376736111111  10.2890625 11.1770833333333  C 12.1953125 8.09375  14.921875 6.55208333333333  18.46875 6.55208333333333  C 20.484375 6.55208333333333  22.34765625 7.27072482638889  24.05859375 8.7080078125  Z M 23.82421875 4.31184895833333  C 21.97265625 3.49283854166667  20.03125 3.08333333333333  18 3.08333333333333  C 15.96875 3.08333333333333  14.02734375 3.49283854166667  12.17578125 4.31184895833333  C 10.32421875 5.130859375  8.73046875 6.22688802083333  7.39453125 7.59993489583333  C 6.05859375 8.97298177083333  4.9921875 10.6110026041667  4.1953125 12.5139973958333  C 3.3984375 14.4169921875  3 16.4123263888889  3 18.5  C 3 20.5876736111111  3.3984375 22.5830078125  4.1953125 24.4860026041667  C 4.9921875 26.3889973958333  6.05859375 28.0270182291667  7.39453125 29.4000651041667  C 8.73046875 30.7731119791667  10.32421875 31.869140625  12.17578125 32.6881510416667  C 14.02734375 33.5071614583333  15.96875 33.9166666666667  18 33.9166666666667  C 20.03125 33.9166666666667  21.97265625 33.5071614583333  23.82421875 32.6881510416667  C 25.67578125 31.869140625  27.26953125 30.7731119791667  28.60546875 29.4000651041667  C 29.94140625 28.0270182291667  31.0078125 26.3889973958333  31.8046875 24.4860026041667  C 32.6015625 22.5830078125  33 20.5876736111111  33 18.5  C 33 16.4123263888889  32.6015625 14.4169921875  31.8046875 12.5139973958333  C 31.0078125 10.6110026041667  29.94140625 8.97298177083333  28.60546875 7.59993489583333  C 27.26953125 6.22688802083333  25.67578125 5.130859375  23.82421875 4.31184895833333  Z M 33.5859375 9.2138671875  C 35.1953125 12.0482855902778  36 15.1436631944444  36 18.5  C 36 21.8563368055556  35.1953125 24.9517144097222  33.5859375 27.7861328125  C 31.9765625 30.6205512152778  29.79296875 32.8648003472222  27.03515625 34.5188802083333  C 24.27734375 36.1729600694445  21.265625 37  18 37  C 14.734375 37  11.72265625 36.1729600694445  8.96484375 34.5188802083333  C 6.20703125 32.8648003472222  4.0234375 30.6205512152778  2.4140625 27.7861328125  C 0.8046875 24.9517144097222  0 21.8563368055556  0 18.5  C 0 15.1436631944444  0.8046875 12.0482855902778  2.4140625 9.2138671875  C 4.0234375 6.37944878472222  6.20703125 4.13519965277777  8.96484375 2.48111979166667  C 11.72265625 0.827039930555552  14.734375 0  18 0  C 21.265625 0  24.27734375 0.827039930555552  27.03515625 2.48111979166667  C 29.79296875 4.13519965277777  31.9765625 6.37944878472222  33.5859375 9.2138671875  Z " fill-rule="nonzero" fill="#95f204" stroke="none" transform="matrix(1 0 0 1 124 499 )" />
  </g>
</svg>